<?xml version="1.0" standalone="no"?>
<!DOCTYPE svg PUBLIC "-//W3C//DTD SVG 20010904//EN"
 "http://www.w3.org/TR/2001/REC-SVG-20010904/DTD/svg10.dtd">
<svg version="1.0" xmlns="http://www.w3.org/2000/svg"
 width="256.000000pt" height="256.000000pt" viewBox="0 0 256.000000 256.000000"
 preserveAspectRatio="xMidYMid meet">

<g transform="translate(0.000000,256.000000) scale(0.100000,-0.100000)"
fill="#000000" stroke="none">
<path d="M740 2080 c0 -75 17 -130 51 -166 l20 -21 -44 -11 c-24 -7 -83 -30
-131 -52 -66 -30 -87 -44 -84 -57 6 -32 114 -106 172 -117 l54 -11 -79 -100
c-92 -116 -109 -148 -109 -204 0 -97 62 -162 161 -169 71 -5 109 8 149 54 25
29 36 34 75 34 l45 0 0 -275 0 -276 149 -150 149 -151 133 129 c74 71 181 173
239 227 135 126 190 182 190 195 0 22 -55 61 -86 61 -22 0 -42 10 -64 30 l-32
30 -125 0 c-110 0 -128 -2 -154 -21 l-29 -20 0 -222 0 -221 -27 -28 c-15 -15
-30 -28 -34 -28 -9 0 -23 552 -14 579 6 21 11 21 242 21 l235 0 20 -25 c33
-42 73 -58 114 -45 58 19 56 75 -4 136 -30 29 -61 31 -95 4 -24 -19 -40 -20
-271 -20 l-246 0 0 68 c0 61 3 71 26 93 14 13 40 51 57 84 26 51 31 74 35 153
2 51 7 92 11 90 3 -2 23 -10 44 -18 37 -14 37 -15 37 -70 0 -80 23 -100 112
-100 56 0 71 4 96 25 17 14 42 25 56 25 26 0 33 14 18 37 -4 7 -32 16 -62 20
-50 7 -55 11 -58 35 -3 21 3 30 25 42 42 22 105 84 101 98 -6 18 -132 91 -192
111 -27 9 -69 17 -93 17 l-44 0 20 21 c24 26 43 106 35 151 -11 69 -15 78 -29
78 -8 0 -20 -10 -26 -22 -17 -33 -60 -78 -91 -94 -21 -11 -78 -14 -256 -14
l-229 0 -41 30 c-23 16 -52 46 -64 65 -13 19 -31 35 -40 35 -16 0 -18 -10 -18
-70z m740 -71 c-15 -83 -76 -129 -171 -129 -63 0 -88 18 -92 65 l-2 28 61 -2
c82 -3 134 12 169 49 16 16 32 30 36 30 3 0 3 -18 -1 -41z m-638 -1 c31 -25
53 -34 94 -38 l55 -5 -31 -42 c-28 -38 -33 -41 -58 -32 -38 13 -81 55 -98 95
-26 63 -19 67 38 22z m339 -116 c11 -29 66 -62 105 -62 26 0 36 -8 64 -52 33
-51 34 -56 32 -146 -4 -158 -52 -248 -157 -298 -44 -21 -65 -24 -171 -24 -120
0 -122 0 -128 24 -3 13 -36 51 -74 84 -53 47 -76 61 -105 64 l-37 3 76 95 c41
52 103 141 137 198 79 132 131 185 189 192 41 5 43 4 51 -25 5 -16 13 -40 18
-53z m486 -87 c65 -32 72 -39 61 -52 -22 -27 -110 -63 -153 -63 -52 0 -137 40
-162 76 -36 51 -34 58 16 71 76 20 154 10 238 -32z m-767 27 c0 -13 -70 -126
-83 -135 -28 -18 -145 19 -176 57 -11 13 -5 19 41 42 29 15 64 30 78 35 34 10
140 11 140 1z m766 -263 c23 -25 17 -29 -41 -29 l-55 0 0 49 c0 49 1 50 33 53
28 3 33 -1 40 -27 5 -16 15 -37 23 -46z m-840 -190 c30 -29 54 -61 54 -71 0
-56 -57 -93 -134 -85 -69 6 -106 47 -106 115 0 70 19 92 81 92 47 0 54 -4 105
-51z m436 -141 c2 -29 2 -201 -1 -381 l-3 -329 -34 33 -34 33 0 336 0 336 28
11 c15 6 30 11 34 12 3 1 8 -23 10 -51z m-122 -285 l0 -307 -35 34 -35 34 0
273 0 273 35 0 35 0 0 -307z m760 196 c0 -27 -28 -35 -48 -15 -16 16 -16 18 1
31 24 17 47 9 47 -16z m-380 -277 l0 -158 -40 -39 -40 -39 0 190 c0 105 3 194
7 197 3 4 21 7 40 7 l33 0 0 -158z m185 138 c10 -11 26 -22 35 -25 18 -6 35
-34 26 -42 -3 -3 -15 4 -27 16 -13 12 -31 21 -41 21 -23 0 -58 -35 -58 -58 0
-11 9 -27 20 -37 11 -10 20 -21 20 -25 0 -3 -25 -28 -55 -54 l-55 -47 0 135 0
136 58 0 c46 0 63 -4 77 -20z m23 -93 c4 -20 -25 -34 -40 -19 -15 15 -1 44 19
40 10 -2 19 -11 21 -21z"/>
<path d="M1035 1775 c-14 -13 -25 -36 -25 -50 0 -33 42 -75 75 -75 35 0 75 42
75 78 0 36 -37 72 -74 72 -15 0 -37 -10 -51 -25z m72 -36 c16 -16 5 -39 -17
-39 -23 0 -34 16 -26 35 6 18 28 19 43 4z"/>
<path d="M1242 1733 c-14 -26 3 -53 34 -53 14 0 27 7 31 16 15 39 -46 73 -65
37z"/>
<path d="M992 1568 c3 -22 6 -23 141 -26 l137 -3 0 26 0 25 -141 0 c-140 0
-140 0 -137 -22z"/>
<path d="M1144 1485 c-11 -9 -42 -14 -76 -15 -51 0 -58 -2 -58 -20 0 -22 3
-23 72 -20 25 1 56 -5 67 -12 41 -26 81 31 46 66 -20 20 -26 20 -51 1z"/>
<path d="M731 1361 c-21 -13 -9 -56 16 -59 27 -4 50 30 30 45 -24 19 -33 22
-46 14z"/>
<path d="M1838 1485 c-15 -8 -30 -24 -33 -36 -7 -20 -11 -21 -176 -17 -93 1
-169 0 -169 -3 0 -3 10 -15 23 -27 22 -21 33 -22 174 -22 137 0 151 -2 168
-20 22 -24 62 -26 94 -3 15 10 21 11 16 3 -5 -8 -4 -11 2 -7 5 3 10 24 11 46
3 69 -56 115 -110 86z m56 -50 c20 -20 10 -45 -19 -45 -30 0 -42 30 -19 47 22
16 19 16 38 -2z"/>
<path d="M1383 1294 c-3 -8 -2 -19 3 -24 5 -5 128 -10 274 -11 l265 -2 3 27 3
26 -271 0 c-236 0 -271 -2 -277 -16z"/>
</g>
</svg>
